trial_3_IK.mot
nRows=7
nColumns=42

name trial_3_IK.mot
datacolumns 42
datarows 7
range 5.3800000000 5.4400000000
endheader
time	pelvis_tilt	pelvis_list	pelvis_rotation	pelvis_tx	pelvis_ty	pelvis_tz	hip_flexion_r	hip_adduction_r	hip_rotation_r	knee_angle_r	knee_vv_r	knee_rot_r	ankle_angle_r	subtalar_angle_r	mtp_angle_r	hip_flexion_l	hip_adduction_l	hip_rotation_l	knee_angle_l	knee_vv_l	knee_rot_l	ankle_angle_l	subtalar_angle_l	mtp_angle_l	lumbar_extension	lumbar_bending	lumbar_rotation	arm_flex_r	arm_add_r	arm_rot_r	elbow_flex_r	pro_sup_r	wrist_flex_r	wrist_dev_r	arm_flex_l	arm_add_l	arm_rot_l	elbow_flex_l	pro_sup_l	wrist_flex_l	wrist_dev_l
        5.3800000000	        8.7219193400	        4.1206989000	        1.7489675300	        0.0959564800	        0.9010808300	       -0.0488731200	       13.0805675800	       -5.3345998100	       -2.9303848600	       -6.2608319400	        0.0000000000	        0.0000000000	        2.1213514300	        0.0000000000	        0.0000000000	      -22.1922443300	        7.1760179500	        0.3710774200	       -1.9974943200	        0.0000000000	        0.0000000000	        8.0305563700	        0.0000000000	        0.0000000000	      -24.2471212200	       -2.4223863900	       -6.0477077500	       -7.1364369400	       -9.0451110900	       35.4092740900	        2.1385045700	       86.5166270600	        0.0000000000	        0.0000000000	       20.8393180500	      -22.6994807700	       20.8825840200	       32.6274732200	       85.9436692700	        0.0000000000	        0.0000000000	
        5.3900000000	        8.7811980700	        4.1166490100	        1.8481319300	        0.0964232100	        0.9000706600	       -0.0475513400	       13.0890838700	       -5.1761559100	       -3.0589138100	       -7.5368582400	        0.0000000000	        0.0000000000	        1.7522557400	        0.0000000000	        0.0000000000	      -22.6585581300	        6.9791267100	        0.3571749200	       -2.4027859500	        0.0000000000	        0.0000000000	        8.1396618400	        0.0000000000	        0.0000000000	      -24.2469826400	       -2.4254077900	       -5.9544231500	       -6.7004908200	       -9.2101121400	       35.5358355000	        2.2581196100	       86.5166270600	        0.0000000000	        0.0000000000	       20.4013548000	      -22.3608754000	       21.1921097500	       31.7784221800	       85.9436692700	        0.0000000000	        0.0000000000	
        5.4000000000	        8.8745497900	        4.0532711600	        1.9569639700	        0.0969913400	        0.8992325700	       -0.0461246700	       13.0583843300	       -4.9517870200	       -3.1058418500	       -8.6158092300	        0.0000000000	        0.0000000000	        1.1718352600	        0.0000000000	        0.0000000000	      -23.0906244400	        6.7077089900	        0.3037169900	       -2.9297889500	        0.0000000000	        0.0000000000	        8.2034539800	        0.0000000000	        0.0000000000	      -24.2789490900	       -2.3724195600	       -5.8372916800	       -6.2104074900	       -9.3834093200	       35.6552614900	        2.4069982200	       86.5166270600	        0.0000000000	        0.0000000000	       19.9606942300	      -21.9880889100	       21.5646743400	       30.8166457700	       85.9436692700	        0.0000000000	        0.0000000000	
        5.4100000000	        9.0297926700	        3.9041477500	        2.0677242100	        0.0976249600	        0.8987697900	       -0.0445744500	       12.9698368400	       -4.6429677200	       -3.0783496000	       -9.4726518100	        0.0000000000	        0.0000000000	        0.4155054900	        0.0000000000	        0.0000000000	      -23.5037342800	        6.3427312100	        0.2094934500	       -3.5789818800	        0.0000000000	        0.0000000000	        8.2088531100	        0.0000000000	        0.0000000000	      -24.3814118900	       -2.2342068600	       -5.6811023700	       -5.6499592200	       -9.5726549400	       35.7923911700	        2.5828124300	       86.5166270600	        0.0000000000	        0.0000000000	       19.5282107000	      -21.5707723900	       22.0050434900	       29.7390920300	       85.9436692700	        0.0000000000	        0.0000000000	
        5.4200000000	        9.2475134000	        3.6617598900	        2.1682901400	        0.0981821000	        0.8987037800	       -0.0429003400	       12.7777088900	       -4.2421336200	       -3.0069462100	      -10.1808681800	        0.0000000000	        0.0000000000	       -0.4365094800	        0.0000000000	        0.0000000000	      -23.9035139800	        5.8870256300	        0.0759658700	       -4.3446117000	        0.0000000000	        0.0000000000	        8.1441407900	        0.0000000000	        0.0000000000	      -24.5718021400	       -1.9957692700	       -5.4754323100	       -5.0120018600	       -9.7875496700	       35.9727860900	        2.7795149600	       86.5166270600	        0.0000000000	        0.0000000000	       19.1023163600	      -21.1009856100	       22.5240707300	       28.5452022100	       85.9436692700	        0.0000000000	        0.0000000000	
        5.4300000000	        9.5159407100	        3.3389348200	        2.2461041500	        0.0986276000	        0.8989718000	       -0.0411450200	       12.4495868000	       -3.7594904300	       -2.9357301400	      -10.8609621000	        0.0000000000	        0.0000000000	       -1.2781049700	        0.0000000000	        0.0000000000	      -24.2887242200	        5.3612367800	       -0.0953230700	       -5.2252873700	        0.0000000000	        0.0000000000	        7.9983984600	        0.0000000000	        0.0000000000	      -24.8399179900	       -1.6667352800	       -5.2166807100	       -4.3028140600	      -10.0332608700	       36.2160210500	        2.9888825100	       86.5166270600	        0.0000000000	        0.0000000000	       18.6682665700	      -20.5774549600	       23.1395587500	       27.2366180500	       85.9436692700	        0.0000000000	        0.0000000000	
        5.4400000000	        9.8284037100	        2.9617571900	        2.2921503200	        0.0991539900	        0.8995809900	       -0.0393639400	       12.0043264300	       -3.2254983900	       -2.9046235100	      -11.6102448100	        0.0000000000	        0.0000000000	       -2.0018717600	        0.0000000000	        0.0000000000	      -24.6522358500	        4.7942526700	       -0.3059960400	       -6.2355330700	        0.0000000000	        0.0000000000	        7.7587997000	        0.0000000000	        0.0000000000	      -25.1524277800	       -1.2838266200	       -4.9081252400	       -3.5388918500	      -10.3050102200	       36.5299995300	        3.2036698900	       86.5166270600	        0.0000000000	        0.0000000000	       18.2042335400	      -20.0079335700	       23.8744007600	       25.8179407700	       85.9436692700	        0.0000000000	        0.0000000000	
